<?xml version="1.0" encoding="utf-8"?>
<!-- Svg Vector Icons : http://www.onlinewebfonts.com/icon -->
<!DOCTYPE svg PUBLIC "-//W3C//DTD SVG 1.1//EN" "http://www.w3.org/Graphics/SVG/1.1/DTD/svg11.dtd">
<svg version="1.1" xmlns="http://www.w3.org/2000/svg" xmlns:xlink="http://www.w3.org/1999/xlink" x="0px" y="0px" viewBox="0 0 1000 1000" enable-background="new 0 0 1000 1000" xml:space="preserve">
<metadata> Svg Vector Icons : http://www.onlinewebfonts.com/icon </metadata>
<g><g transform="translate(0.000000,511.000000) scale(0.100000,-0.100000)"><path d="M7092.6,2997.9c-372.8-153.4-428.1-187.4-449.4-274.8c-4.3-23.4,66-268.4,157.6-545.3l168.3-500.6L6034,510.1c-515.5-641.1-943.6-1160.9-950-1154.5c-6.4,8.5-291.8,634.7-632.6,1393l-619.8,1378.1l106.5,4.3c176.8,10.6,245,27.7,289.7,74.6c63.9,70.3,57.5,191.7-14.9,272.6c-55.4,57.5-112.9,76.7-662.4,213c-630.5,157.6-656,159.8-707.2,63.9c-10.6-21.3-21.3-140.6-21.3-264.1c0-204.5,4.3-227.9,51.1-283.3c51.1-57.5,57.5-59.6,304.6-66l251.3-8.5l217.3-481.4l215.1-481.4l-210.9-225.8c-115-123.5-298.2-317.4-406.8-434.5l-198.1-208.7l-117.2,78.8c-630.5,426-1469.7,411.1-2076.8-36.2C133.9-186.4-102.5-1130,285.1-1920.3c313.1-636.9,922.3-1013.9,1631.6-1013.9c950-2.1,1714.7,700.8,1810.5,1659.3l14.9,153.4H4445c406.8,0,717.8,8.5,739.1,21.3c21.3,10.7,458,543.2,971.3,1182.2c513.3,639,939.3,1160.9,947.9,1160.9c14.9,0,244.9-700.8,232.2-709.3c-4.3-4.3-78.8-49-166.2-98c-185.3-108.6-443-347.2-560.2-519.7c-117.2-172.5-221.5-400.4-274.8-600.7c-53.3-202.3-63.9-607.1-21.3-809.4c127.8-590,570.8-1114,1118.3-1320.6c236.4-89.5,408.9-121.4,662.4-121.4c370.6,0,688,91.6,975.5,279c391.9,257.7,636.9,585.8,775.3,1039.5c49,166.1,55.4,223.7,55.4,485.6c0,349.3-40.4,532.5-176.8,809.4C9486.8,156.5,9065,495.2,8528.3,640c-136.3,36.2-562.3,51.1-751.9,27.7l-85.2-10.7l-315.2,947.9c-172.5,521.9-315.2,958.5-315.2,969.2c0,12.8,121.4,70.3,270.5,127.8c149.1,59.6,296.1,129.9,330.2,155.5c72.4,61.8,80.9,164,14.9,247.1C7608.1,3191.8,7522.9,3176.8,7092.6,2997.9z M4374.7,32.9c187.4-419.6,342.9-771.1,342.9-777.5c0-8.5-230-14.9-511.2-14.9h-509.1l-23.4,91.6c-55.4,213-155.5,426-293.9,617.7L3307.6,50l272.6,287.6c151.2,159.8,308.9,325.9,349.3,372.8s78.8,85.2,87.3,85.2C4023.3,795.5,4185.2,452.6,4374.7,32.9z M2378.9,248.1c183.2-63.9,409-187.5,396.2-219.4c-4.3-8.5-187.4-210.9-411.1-447.3C2142.5-655,1952.9-868,1942.3-891.5c-21.3-55.4,0-121.4,55.4-181c42.6-49,46.9-49,711.4-49h668.8l-12.8-121.4c-63.9-545.3-355.7-964.9-830.7-1190.7c-240.7-115-385.5-142.7-681.6-132.1c-217.3,8.5-281.2,19.2-428.1,74.6c-436.7,164-751.9,489.9-896.7,932.9c-46.9,142.7-55.4,210.9-55.4,415.4C470.4-693.4,611-365.4,934.8-62.9c294,274.8,615.6,394.1,1035.2,381.3C2151,312,2229.8,299.2,2378.9,248.1z M8519.8,263c240.7-74.6,406.8-178.9,607.1-381.3C9425-418.6,9542.2-710.4,9540-1142.8c-2.1-202.3-12.8-274.8-57.5-415.4c-144.8-443-460.1-768.9-896.7-932.9c-147-55.4-210.9-66-428.1-74.6c-296.1-10.7-440.9,17-681.6,132.1c-394.1,187.4-677.3,528.2-790.2,950c-46.9,181.1-49,517.6-2.1,702.9c89.5,342.9,328,681.6,617.7,871.2c74.6,46.9,140.6,87.3,147,87.3c8.5,0,115-308.9,240.7-685.9c193.8-585.8,236.4-696.5,291.8-747.6c53.3-51.1,76.7-59.6,129.9-49c83.1,17,136.3,66,151.3,138.5c8.5,38.3-61.8,279-219.4,758.3l-232.1,702.9l55.4,14.9C7978.7,339.7,8364.3,312,8519.8,263z M3218.2-493.2c51.1-106.5,93.7-210.9,93.7-230c0-31.9-36.2-36.2-385.5-36.2h-385.5L2790-493.2C3084-180.1,3064.8-180.1,3218.2-493.2z"/></g></g>
</svg>